<svg width="99" height="99" viewBox="0 0 99 99" fill="none" xmlns="http://www.w3.org/2000/svg">
<g clip-path="url(#clip0_3500_3010)">
<path d="M86.625 6.1875C75.7969 6.1875 74.25 15.4688 74.25 18.5625C74.25 21.6562 74.25 24.75 77.3438 24.75C80.4375 24.75 80.4375 21.6562 80.4375 18.5625C80.4375 15.4688 81.9844 12.375 86.625 12.375C91.2656 12.375 92.8125 15.4688 92.8125 18.5625C92.8125 34.0312 74.25 43.3125 64.9688 43.3125H34.0312C24.75 43.3125 6.1875 34.0312 6.1875 18.5625C6.1875 15.4688 7.73438 12.375 12.375 12.375C17.0156 12.375 18.5625 15.4688 18.5625 18.5625C18.5625 21.6562 18.5625 24.75 21.6562 24.75C24.75 24.75 24.75 21.6562 24.75 18.5625C24.75 15.4688 23.2031 6.1875 12.375 6.1875C4.64062 6.1875 0 12.375 0 18.5625C0 37.125 21.6562 49.5 34.0312 49.5H64.9688C77.3438 49.5 99 37.125 99 18.5625C99 12.375 94.3594 6.1875 86.625 6.1875Z" fill="#E6B85C"/>
<path d="M77.3438 6.1875C77.3438 3.0922 77.3438 0 74.25 0C71.1562 0 27.8438 0 24.75 0C21.6562 0 21.6562 3.0922 21.6562 6.1875C21.6562 58.7812 43.3125 52.5938 43.3125 58.7812V64.9688C43.3125 71.1562 34.0312 68.0625 34.0312 74.25H64.9688C64.9688 68.0625 55.6875 71.1562 55.6875 64.9688V58.7812C55.6875 52.5938 77.3438 58.7812 77.3438 6.1875Z" fill="#FFCC66"/>
<path d="M77.3438 80.4375H21.6562C19.9485 80.4375 18.5625 81.822 18.5625 83.5312V95.9062C18.5625 97.614 19.9485 99 21.6562 99H77.3438C79.0515 99 80.4375 97.614 80.4375 95.9062V83.5312C80.4375 81.822 79.0515 80.4375 77.3438 80.4375Z" fill="#666666"/>
<path d="M64.9688 86.625H34.0312V92.8125H64.9688V86.625Z" fill="#E6E6E6"/>
<path fill-rule="evenodd" clip-rule="evenodd" d="M64.9688 74.25H34.0312C34.0312 74.25 24.75 74.25 24.75 80.4375H74.25C74.25 74.25 64.9688 74.25 64.9688 74.25ZM43.3125 64.9688H55.6875C57.3952 64.9688 58.7812 63.5827 58.7812 61.875C58.7812 60.1657 57.3952 58.7812 55.6875 58.7812H43.3125C41.6047 58.7812 40.2188 60.1657 40.2188 61.875C40.2188 63.5827 41.6047 64.9688 43.3125 64.9688Z" fill="#E6B85C"/>
<path fill-rule="evenodd" clip-rule="evenodd" d="M55.6875 30.936H52.5938V15.4673V12.3735V9.27979H49.5C48.3491 9.27979 47.3545 9.91555 46.8239 10.8499L41.1005 16.5748C39.9403 17.7335 39.9403 19.616 41.1005 20.7746C42.2591 21.9348 44.1401 21.9348 45.3002 20.7746L46.4062 19.6671V30.936H43.3125C41.6032 30.936 40.2188 32.322 40.2188 34.0298C40.2188 35.7375 41.6032 37.1235 43.3125 37.1235H55.6875C57.3953 37.1235 58.7812 35.7375 58.7812 34.0298C58.7812 32.322 57.3953 30.936 55.6875 30.936Z" fill="#CCA352"/>
</g>
<defs>
<clipPath id="clip0_3500_3010">
<rect width="99" height="99" fill="white"/>
</clipPath>
</defs>
</svg>
