<svg width="64" height="64" viewBox="0 0 64 64" fill="none" xmlns="http://www.w3.org/2000/svg">
<path d="M64 32C64 14.3555 49.6459 0 32 0C14.3541 0 0 14.3555 0 32C0 40.7159 3.78862 47.1852 11.2051 51.2806C12.6784 61.611 17.1731 64 32 64C46.4128 64 51.0708 61.7648 52.6731 52.1515C60.1696 48.2747 64 41.5163 64 32Z" fill="#303C42"/>
<path d="M61.0894 35.6668C57.8772 32.6591 56 28.4405 56 24.0002C56 21.7292 56.4898 19.4952 57.4253 17.4336C59.8973 21.7311 61.3332 26.6965 61.3332 32.0002C61.3334 33.2902 61.2369 34.4996 61.0894 35.6668Z" fill="#F2F2F2"/>
<path d="M31.9994 31.9998C39.3632 31.9998 45.3328 26.0302 45.3328 18.6664C45.3328 11.3026 39.3632 5.33301 31.9994 5.33301C24.6356 5.33301 18.666 11.3026 18.666 18.6664C18.666 26.0302 24.6356 31.9998 31.9994 31.9998Z" fill="#F2F2F2"/>
<path d="M6.57414 17.4331C7.50964 19.4947 7.99939 21.7287 7.99939 23.9997C7.99939 28.4061 6.14389 32.6042 2.96714 35.6082C2.78864 34.4524 2.66602 33.2627 2.66602 31.9997C2.66602 26.696 4.10214 21.7307 6.57414 17.4331Z" fill="#F2F2F2"/>
<path d="M31.9993 61.3335C16.3873 61.3335 14.377 58.7984 13.5176 48.0535C17.3561 43.8972 24.3717 41.3335 31.9993 41.3335C39.627 41.3335 46.6426 43.8972 50.4811 48.0535C49.6217 58.7982 47.6113 61.3335 31.9993 61.3335Z" fill="#FEE4D0"/>
<path d="M53.0756 48.873C53.1121 48.479 53.1546 48.1053 53.1855 47.6914C53.2115 47.3411 53.097 46.9948 52.8704 46.7265C48.6281 41.7551 40.6308 38.6666 32.0006 38.6666C23.3705 38.6666 15.373 41.7551 11.1309 46.7265C10.9043 46.9948 10.7898 47.3411 10.8158 47.6914C10.8229 47.7864 10.8336 47.8686 10.841 47.9625C7.26089 45.5715 4.87489 42.4041 3.65039 38.5233C8.04764 34.9903 10.6673 29.6485 10.6673 24C10.6673 20.799 9.79939 17.68 8.22602 14.8861C13.2573 7.91676 21.2574 3.25514 30.3663 2.74964C22.3083 3.57076 16.0006 10.3954 16.0006 18.6666C16.0006 27.4895 23.1778 34.6666 32.0006 34.6666C40.8235 34.6666 48.0006 27.4895 48.0006 18.6666C48.0006 10.3953 41.693 3.57076 33.6349 2.74951C42.7438 3.25501 50.7439 7.91664 55.7751 14.886C54.2018 17.68 53.3339 20.7989 53.3339 23.9999C53.3339 29.7251 56.0148 35.1208 60.5106 38.6523C59.3408 43.0713 56.8849 46.4593 53.0756 48.873Z" fill="#D32F2F"/>
<path d="M61.0894 35.6668C57.8772 32.6591 56 28.4405 56 24.0002C56 21.7292 56.4898 19.4952 57.4253 17.4336C59.8973 21.7311 61.3332 26.6965 61.3332 32.0002C61.3334 33.2902 61.2369 34.4996 61.0894 35.6668Z" fill="#F2F2F2"/>
<path d="M53.0756 48.873C53.1121 48.479 53.1546 48.1053 53.1855 47.6914C53.2115 47.3411 53.097 46.9948 52.8704 46.7265C48.6281 41.7551 40.6308 38.6666 32.0006 38.6666C23.3705 38.6666 15.373 41.7551 11.1309 46.7265C10.9043 46.9948 10.7898 47.3411 10.8158 47.6914C10.8229 47.7864 10.8336 47.8686 10.841 47.9625C7.26089 45.5715 4.87489 42.4041 3.65039 38.5233C8.04764 34.9903 10.6673 29.6485 10.6673 24C10.6673 20.799 9.79939 17.68 8.22602 14.8861C13.2573 7.91676 21.2574 3.25514 30.3663 2.74964C22.3083 3.57076 16.0006 10.3954 16.0006 18.6666C16.0006 27.4895 23.1778 34.6666 32.0006 34.6666C40.8235 34.6666 48.0006 27.4895 48.0006 18.6666C48.0006 10.3953 41.693 3.57076 33.6349 2.74951C42.7438 3.25501 50.7439 7.91664 55.7751 14.886C54.2018 17.68 53.3339 20.7989 53.3339 23.9999C53.3339 29.7251 56.0148 35.1208 60.5106 38.6523C59.3408 43.0713 56.8849 46.4593 53.0756 48.873Z" fill="#D32F2F"/>
<path d="M31.9993 61.3335C47.6113 61.3335 49.6217 58.7984 50.4811 48.0535C46.6426 43.8972 39.627 41.3335 31.9993 41.3335C24.3717 41.3335 17.3561 43.8972 13.5176 48.0535L26.6598 61.1957C28.2368 61.2905 30.0038 61.3335 31.9993 61.3335Z" fill="url(#paint0_linear_3104_2448)"/>
<path d="M24.666 45.333C23.6269 45.333 22.666 45.9789 22.666 50.6664C22.666 55.3539 23.627 55.9998 24.666 55.9998C25.705 55.9998 26.666 55.3539 26.666 50.6664C26.666 45.9789 25.7051 45.333 24.666 45.333Z" fill="#303C42"/>
<path d="M39.332 55.9998C40.3712 55.9998 41.332 55.3539 41.332 50.6664C41.332 45.9789 40.371 45.333 39.332 45.333C38.293 45.333 37.332 45.9789 37.332 50.6664C37.332 55.3539 38.2929 55.9998 39.332 55.9998Z" fill="#303C42"/>
<path d="M64 32C64 14.3555 49.6459 0 32 0C14.3541 0 0 14.3555 0 32C0 40.7159 3.78862 47.1852 11.2051 51.2806C12.6784 61.611 17.1731 64 32 64C46.4128 64 51.0708 61.7648 52.6731 52.1515C60.1696 48.2747 64 41.5163 64 32Z" fill="url(#paint1_linear_3104_2448)"/>
<path opacity="0.1" d="M2.96758 35.6086C3.44883 35.1534 3.88883 34.6629 4.30758 34.1564C3.77045 33.9644 3.25758 33.7485 2.73633 33.541C2.78908 34.2448 2.86358 34.9355 2.96758 35.6086Z" fill="black"/>
<path opacity="0.1" d="M56.1328 25.9483C56.5957 29.658 58.3511 33.1034 61.0884 35.6667C61.2359 34.4993 61.3324 33.29 61.3324 32C61.3324 28.4635 60.6448 25.1004 59.4864 21.9624C58.5534 23.3612 57.4251 24.692 56.1328 25.9483Z" fill="black"/>
<path opacity="0.1" d="M6.98864 35.0131C6.03239 36.3066 4.92664 37.4981 3.65039 38.5235C4.87489 42.4043 7.26089 45.5718 10.841 47.9627C10.8336 47.8688 10.8229 47.7866 10.8158 47.6916C10.7898 47.3413 10.9043 46.995 11.1309 46.7267C15.3731 41.7553 23.3705 38.6668 32.0006 38.6668C40.6308 38.6668 48.6283 41.7553 52.8704 46.7267C53.097 46.995 53.2115 47.3413 53.1855 47.6916C53.1546 48.1055 53.1121 48.4792 53.0756 48.8732C56.8849 46.4595 59.3408 43.0715 60.5106 38.6525C57.0843 35.9611 54.7224 32.1843 53.7876 28.0068C46.5685 33.6937 35.601 37.3335 23.3339 37.3335C17.498 37.3336 11.9743 36.4883 6.98864 35.0131Z" fill="black"/>
<defs>
<linearGradient id="paint0_linear_3104_2448" x1="22.7545" y1="38.8035" x2="44.7651" y2="60.8139" gradientUnits="userSpaceOnUse">
<stop stop-opacity="0.1"/>
<stop offset="1" stop-opacity="0"/>
</linearGradient>
<linearGradient id="paint1_linear_3104_2448" x1="2.72107" y1="19.077" x2="60.3847" y2="45.965" gradientUnits="userSpaceOnUse">
<stop stop-color="white" stop-opacity="0.2"/>
<stop offset="1" stop-color="white" stop-opacity="0"/>
</linearGradient>
</defs>
</svg>
