<svg width="56" height="56" viewBox="0 0 56 56" fill="none" xmlns="http://www.w3.org/2000/svg">
<circle cx="28" cy="28" r="28" fill="#9960FF"/>
<path fill-rule="evenodd" clip-rule="evenodd" d="M27.4971 12.0181C27.0378 12.1007 26.5872 12.2417 26.2637 12.4041C25.5844 12.7448 10.744 21.492 10.5719 21.6531C10.4757 21.7431 10.3083 22.0002 10.1999 22.2243C9.83616 22.9763 9.97932 23.9192 10.5439 24.4903C10.6789 24.6269 11.8455 25.3593 13.1363 26.118L15.4832 27.4972L15.4845 30.7374C15.486 34.3375 15.5201 34.6817 15.9637 35.5721C16.3305 36.3087 16.9078 36.8585 17.9861 37.4986C20.9335 39.2482 24.2812 41.154 24.7532 41.3509C26.8953 42.2444 29.3238 42.2142 31.4248 41.2681C32.2932 40.8769 38.5101 37.2378 39.0445 36.8076C39.5708 36.384 40.0698 35.651 40.2953 34.97C40.4637 34.4618 40.47 34.3339 40.495 30.9727L40.5209 27.5005L41.4674 26.9414C41.9879 26.634 42.4365 26.3824 42.4642 26.3824C42.4919 26.3824 42.5146 28.4003 42.5146 30.8667V35.3508L42.2725 35.5569C41.6744 36.0659 41.4893 37.1298 41.866 37.8943C42.2396 38.6528 42.9131 39.0442 43.7412 38.9843C44.3367 38.9412 44.6459 38.797 45.0538 38.3719C45.7688 37.6266 45.7678 36.4323 45.0514 35.6474L44.7479 35.3148V30.1643V25.0138L44.9751 24.8781C45.9078 24.3209 46.2601 23.1846 45.797 22.2272C45.6878 22.0015 45.5197 21.7422 45.4235 21.651C45.2581 21.4943 30.6572 12.8782 29.8536 12.4632C29.6461 12.356 29.3169 12.2197 29.122 12.1603C28.739 12.0436 27.8084 11.9621 27.4971 12.0181ZM27.6488 14.2816C27.3751 14.3288 27.0896 14.4925 19.3835 19.021C14.2341 22.0471 12.5134 23.0936 12.5813 23.1583C12.7157 23.2862 27.1326 31.7395 27.3761 31.8332C27.6712 31.9467 28.381 31.9323 28.6777 31.807C28.9754 31.6812 43.2809 23.2872 43.4155 23.1594C43.4851 23.0932 41.7698 22.05 36.4184 18.9042C32.5193 16.612 29.1497 14.6435 28.9304 14.5297C28.5278 14.3207 28.0067 14.2198 27.6488 14.2816ZM17.7311 31.4941C17.7546 34.0835 17.7584 34.1404 17.9362 34.5055C18.0358 34.7102 18.2264 34.9612 18.3597 35.0633C18.7155 35.3359 24.9981 38.9929 25.4948 39.2166C26.648 39.7359 28.3031 39.877 29.5066 39.5588C30.3611 39.3328 30.7863 39.1142 33.8892 37.3057C37.6284 35.1262 37.8043 35.0085 38.0465 34.5252L38.2404 34.138L38.2634 31.5066C38.2761 30.0593 38.2623 28.8752 38.2328 28.8752C38.2032 28.8752 36.2868 29.988 33.974 31.348C31.5194 32.7914 29.5606 33.8931 29.2684 33.9945C28.562 34.2398 27.4296 34.2391 26.727 33.9929C26.44 33.8924 24.4626 32.7797 22.0926 31.3851C19.819 30.0472 17.9021 28.9306 17.8329 28.9037C17.7178 28.859 17.7091 29.0781 17.7311 31.4941Z" fill="white"/>
</svg>
