<svg width="64" height="64" viewBox="0 0 64 64" fill="none" xmlns="http://www.w3.org/2000/svg">
<path d="M56.4155 49.5995C53.8342 49.5995 51.734 51.7531 51.734 54.3995C51.734 56.4581 53.366 58.1327 55.3723 58.1327C56.919 58.1327 58.1766 56.841 58.1766 55.2528C58.1766 54.0411 57.2187 53.0555 56.0401 53.0555V51.9888C57.8064 51.9888 59.2432 53.4523 59.2432 55.2528C59.2432 57.4287 57.5067 59.1994 55.3723 59.1994C52.7783 59.1994 50.6674 57.0458 50.6674 54.3995V6.93359H1.9311L4.74492 12.5612C4.81532 12.702 4.81958 12.8652 4.75772 13.0103L1.64844 20.2667L4.75879 27.5231C4.81638 27.6575 4.81638 27.81 4.75879 27.9444L1.64844 35.1998L4.75879 42.4562C4.81638 42.5906 4.81638 42.7431 4.75879 42.8775L1.64844 50.1329L4.75879 57.3893C4.82598 57.5461 4.81425 57.7263 4.72572 57.8735L2.01003 62.3993H56.5339C59.7691 62.3993 62.4005 59.7668 62.4005 56.5328V55.7328C62.4005 52.3504 59.7157 49.5995 56.4155 49.5995ZM8.02913 20.0982L11.2291 10.4983C11.3741 10.0631 12.0952 10.0631 12.2403 10.4983L15.4402 20.0982C15.4946 20.2603 15.4669 20.4395 15.3677 20.5782C15.2674 20.7179 15.1063 20.8 14.9346 20.8H12.268V24.5333H11.2013V20.8H8.53472C8.36299 20.8 8.20193 20.7179 8.10166 20.5782C8.0014 20.4395 7.97473 20.2603 8.02913 20.0982ZM15.3122 58.2885L14.5581 59.0426L11.7347 56.2202L8.91232 59.0426L8.1582 58.2885L10.9805 55.4661L8.1582 52.6438L8.91232 51.8896L11.7347 54.712L14.557 51.8896L15.3111 52.6438L12.4888 55.4661L15.3122 58.2885ZM15.4679 44.7996H14.4013V41.0664H11.7347C11.5629 41.0664 11.4019 40.9842 11.3016 40.8445C11.2013 40.7058 11.1736 40.5266 11.2291 40.3645L14.429 30.7647C14.5741 30.3295 15.2951 30.3295 15.4402 30.7647L18.1346 38.8467L20.8289 30.7636C20.974 30.3284 21.695 30.3284 21.8401 30.7636L25.04 40.3634C25.0944 40.5256 25.0667 40.7048 24.9675 40.8434C24.8672 40.9842 24.7062 41.0664 24.5345 41.0664H21.8678V44.7996H20.8012V41.0664H15.4679V44.7996ZM47.4365 51.0203C47.4941 51.1835 47.4695 51.3649 47.3703 51.5067C47.2701 51.6486 47.1079 51.7328 46.9341 51.7328H43.2008V55.4661H42.1342V51.7328H38.4009C38.227 51.7328 38.0649 51.6486 37.9646 51.5067C37.8654 51.3649 37.8398 51.1835 37.8985 51.0203L39.5422 46.3996H38.4009C38.2164 46.3996 38.0446 46.3036 37.9476 46.1468C37.8505 45.99 37.8409 45.7937 37.9241 45.6284L42.1907 37.0952C42.372 36.7347 42.964 36.7347 43.1453 37.0952L47.4119 45.6284C47.4951 45.7937 47.4855 45.99 47.3885 46.1468C47.2914 46.3036 47.1186 46.3996 46.9341 46.3996H45.7938L47.4365 51.0203ZM47.3117 20.9558C47.5197 21.1638 47.5197 21.5019 47.3117 21.7099L44.1117 24.9098C44.0072 25.0144 43.8707 25.0666 43.7341 25.0666C43.5976 25.0666 43.4611 25.0144 43.3565 24.9109L40.5342 22.0875L37.7118 24.9098C37.5038 25.1178 37.1657 25.1178 36.9577 24.9098L33.7578 21.7099C33.5498 21.5019 33.5498 21.1638 33.7578 20.9558L36.5801 18.1334L33.7578 15.3111C33.5498 15.1031 33.5498 14.7649 33.7578 14.5569L36.9577 11.357C37.1657 11.149 37.5038 11.149 37.7118 11.357L40.5342 14.1793L43.3565 11.357C43.5645 11.149 43.9027 11.149 44.1107 11.357L47.3106 14.5569C47.5186 14.7649 47.5186 15.1031 47.3106 15.3111L44.4883 18.1334L47.3117 20.9558Z" fill="#FFE4B6"/>
<path d="M57.0676 1.6001C54.1269 1.6001 51.7344 3.99259 51.7344 6.93334V51.0073C52.7776 49.5129 54.4853 48.5326 56.4159 48.5326C58.9417 48.5326 61.1561 49.9001 62.4009 51.9438V6.93334C62.4009 3.99259 60.0084 1.6001 57.0676 1.6001Z" fill="#FFE4B6"/>
<path d="M40.912 15.3107C40.704 15.5187 40.3659 15.5187 40.1579 15.3107L37.3345 12.4873L34.8887 14.9331L37.711 17.7555C37.919 17.9635 37.919 18.3016 37.711 18.5096L34.8887 21.333L37.3345 23.7789L40.1568 20.9565C40.2614 20.852 40.3979 20.7997 40.5344 20.7997C40.671 20.7997 40.8075 20.852 40.912 20.9554L43.7344 23.7789L46.1802 21.333L43.3579 18.5107C43.1499 18.3027 43.1499 17.9645 43.3579 17.7565L46.1802 14.9331L43.7344 12.4873L40.912 15.3107Z" fill="#FF8242"/>
<path d="M39.264 45.3327H40.2976C40.4714 45.3327 40.6336 45.417 40.7338 45.5589C40.833 45.7007 40.8586 45.8821 40.8 46.0453L39.1562 50.666H46.178L44.5343 46.0453C44.4767 45.8821 44.5012 45.7007 44.6004 45.5589C44.7007 45.417 44.8628 45.3327 45.0367 45.3327H46.0703L42.6677 38.5254L39.264 45.3327Z" fill="#00D3E1"/>
<path d="M11.7351 12.353L9.27539 19.7332H14.1948L11.7351 12.353Z" fill="#FFC34C"/>
<path d="M12.4746 39.9993H17.394L14.9343 32.6191L12.4746 39.9993Z" fill="#FFC34C"/>
<path d="M21.3347 32.6191L18.875 39.9993H23.7944L21.3347 32.6191Z" fill="#FFC34C"/>
<path d="M57.0668 0C53.7954 0 51.053 2.2805 50.3277 5.33324H1.06772C0.697588 5.33324 0.355194 5.52524 0.159997 5.8399C-0.0351994 6.15456 -0.0511991 6.54709 0.113065 6.87669L3.09115 12.8339L0.0863986 19.8461C-0.0287995 20.1138 -0.0287995 20.4178 0.0863986 20.6855L3.10715 27.7329L0.0874652 34.7792C-0.0277329 35.0469 -0.0277329 35.3509 0.0874652 35.6186L3.10715 42.666L0.0874652 49.7122C-0.0277329 49.98 -0.0277329 50.284 0.0874652 50.5517L3.07195 57.5169L0.152531 62.383C-0.0458659 62.7126 -0.0501325 63.1221 0.138664 63.4581C0.328528 63.7931 0.683722 63.9989 1.06772 63.9989H56.5335C60.6507 63.9989 64 60.6486 64 56.5324V55.7324V6.93322C64 3.11035 60.8896 0 57.0668 0ZM56.5335 61.8656H2.95142L5.18178 58.1484C5.35778 57.855 5.38231 57.4945 5.24791 57.1798L2.22823 50.1325L5.24791 43.0862C5.36311 42.8185 5.36311 42.5145 5.24791 42.2468L2.22823 35.1994L5.24791 28.1531C5.36311 27.8854 5.36311 27.5814 5.24791 27.3137L2.22823 20.2663L5.24791 13.22C5.37164 12.9321 5.36204 12.6035 5.22231 12.323L2.79355 7.46654H50.1336V54.3991C50.1336 57.3398 52.4834 59.7323 55.3719 59.7323C57.8006 59.7323 59.7761 57.7228 59.7761 55.2524C59.7761 53.1586 58.1004 51.4551 56.0396 51.4551V53.5884C56.9238 53.5884 57.6428 54.334 57.6428 55.2524C57.6428 56.5463 56.6241 57.599 55.3719 57.599C53.6599 57.599 52.2669 56.1633 52.2669 54.3991C52.2669 52.0461 54.1282 50.1325 56.4151 50.1325C59.4209 50.1325 61.8667 52.6445 61.8667 55.7324V56.5324C61.8667 59.4731 59.4742 61.8656 56.5335 61.8656ZM56.4151 47.9992C54.8247 47.9992 53.3751 48.6093 52.2669 49.6056V6.93322C52.2669 4.28686 54.4204 2.1333 57.0668 2.1333C59.7131 2.1333 61.8667 4.28686 61.8667 6.93322V50.3682C60.4865 48.9101 58.5548 47.9992 56.4151 47.9992Z" fill="#120536"/>
<path d="M47.8414 46.4259C48.0355 46.1113 48.0536 45.7187 47.8883 45.3881L43.6217 36.8549C43.2601 36.1317 42.075 36.1317 41.7135 36.8549L37.4469 45.3881C37.2815 45.7187 37.2997 46.1113 37.4938 46.4259C37.6879 46.7406 38.0303 46.9326 38.4004 46.9326H38.7855L37.3957 50.8419C37.2794 51.1683 37.3295 51.5309 37.529 51.8136C37.7285 52.0973 38.0538 52.2658 38.4004 52.2658H41.6004V55.4658H43.7337V52.2658H46.9336C47.2803 52.2658 47.6056 52.0973 47.8051 51.8136C48.0056 51.5309 48.0547 51.1683 47.9384 50.8419L46.5486 46.9326H46.9336C47.3038 46.9326 47.6462 46.7406 47.8414 46.4259ZM39.9119 50.1325L41.3017 46.2233C41.418 45.8969 41.3679 45.5342 41.1684 45.2515C40.9679 44.9678 40.6436 44.7993 40.2969 44.7993H40.1263L42.667 39.7178L45.2078 44.7993H45.0371C44.6905 44.7993 44.3662 44.9678 44.1657 45.2515C43.9652 45.5342 43.9161 45.8969 44.0323 46.2233L45.4222 50.1325H39.9119Z" fill="#120536"/>
<path d="M22.4015 44.7993V41.5993H24.5348C24.8772 41.5993 25.1993 41.4351 25.3998 41.1567C25.6004 40.8783 25.6548 40.5199 25.547 40.1956L22.3471 30.5958C22.2009 30.1595 21.7945 29.8662 21.3348 29.8662C20.8751 29.8662 20.4687 30.1595 20.3226 30.5958L18.1349 37.1589L15.9472 30.5947C15.801 30.1595 15.3947 29.8662 14.9349 29.8662C14.4752 29.8662 14.0688 30.1595 13.9227 30.5958L10.7227 40.1956C10.6139 40.521 10.6694 40.8794 10.8699 41.1567C11.0705 41.434 11.3926 41.5993 11.735 41.5993H13.8683V44.7993H16.0016V41.5993H18.1349H20.2682V44.7993H22.4015ZM13.2144 39.4661L14.9349 34.3056L16.6554 39.4661H13.2144ZM21.3348 34.3056L23.0553 39.4661H19.6143L21.3348 34.3056Z" fill="#120536"/>
<path d="M8.53381 21.3327H10.6671V24.5327H12.8004V21.3327H14.9337C15.2761 21.3327 15.5982 21.1685 15.7988 20.8901C15.9993 20.6117 16.0537 20.2533 15.946 19.929L12.746 10.3292C12.5999 9.89294 12.1935 9.59961 11.7338 9.59961C11.274 9.59961 10.8676 9.89294 10.7215 10.3292L7.52156 19.929C7.41276 20.2544 7.46823 20.6128 7.66876 20.8901C7.86929 21.1674 8.19142 21.3327 8.53381 21.3327ZM11.7338 14.039L13.4543 19.1994H10.0133L11.7338 14.039Z" fill="#120536"/>
<path d="M47.6872 14.1788L44.4873 10.9788C44.0702 10.5618 43.3961 10.5618 42.979 10.9788L40.5332 13.4246L38.0874 10.9788C37.6703 10.5618 36.9962 10.5618 36.5791 10.9788L33.3792 14.1788C32.9621 14.5958 32.9621 15.2699 33.3792 15.687L35.825 18.1328L33.3792 20.5787C32.9621 20.9957 32.9621 21.6698 33.3792 22.0869L36.5791 25.2868C36.9962 25.7039 37.6703 25.7039 38.0874 25.2868L40.5332 22.841L42.979 25.2868C43.187 25.4948 43.4601 25.5994 43.7332 25.5994C44.0062 25.5994 44.2793 25.4948 44.4873 25.2868L47.6872 22.0869C48.1043 21.6698 48.1043 20.9957 47.6872 20.5787L45.2414 18.1328L47.6872 15.687C48.1043 15.2699 48.1043 14.5958 47.6872 14.1788ZM42.979 17.3787C42.562 17.7958 42.562 18.4699 42.979 18.8869L45.4249 21.3328L43.7332 23.0245L41.2873 20.5787C41.0793 20.3707 40.8063 20.2661 40.5332 20.2661C40.2602 20.2661 39.9871 20.3707 39.7791 20.5787L37.3333 23.0245L35.6416 21.3328L38.0874 18.8869C38.5044 18.4699 38.5044 17.7958 38.0874 17.3787L35.6416 14.9329L37.3333 13.2412L39.7791 15.687C40.1962 16.1041 40.8703 16.1041 41.2873 15.687L43.7332 13.2412L45.4249 14.9329L42.979 17.3787Z" fill="#120536"/>
<path d="M14.1792 51.5117L11.7334 53.9575L9.28754 51.5117L7.7793 53.02L10.2251 55.4658L7.7793 57.9116L9.28754 59.4199L11.7334 56.974L14.1792 59.4199L15.6874 57.9116L13.2416 55.4658L15.6874 53.02L14.1792 51.5117Z" fill="#120536"/>
<path d="M23.8156 19.4075L22.6754 17.606C21.965 18.055 21.3271 18.6385 20.8301 19.2945L22.5293 20.584C22.8727 20.1296 23.3186 19.7222 23.8156 19.4075Z" fill="#120536"/>
<path d="M26.8828 49.7604L28.2471 51.3998C28.8337 50.9113 29.3884 50.394 29.8972 49.8617L28.3537 48.3887C27.9025 48.8633 27.4065 49.3241 26.8828 49.7604Z" fill="#120536"/>
<path d="M27.4654 18.4124L27.1828 16.2983C26.3497 16.4093 25.6062 16.5437 24.9727 16.6973L25.474 18.7698C26.0361 18.6343 26.707 18.5127 27.4654 18.4124Z" fill="#120536"/>
<path d="M19.8714 24.2868L21.898 23.6223C21.8287 23.41 21.7818 23.1935 21.7604 22.978C21.7519 22.8863 21.7466 22.7935 21.7466 22.7017C21.7466 22.4959 21.769 22.2857 21.8138 22.0799L19.7295 21.6255C19.6517 21.9807 19.6133 22.3423 19.6133 22.7017C19.6133 22.866 19.6207 23.0303 19.6378 23.1935C19.6751 23.5604 19.7541 23.9284 19.8714 24.2868Z" fill="#120536"/>
<path d="M23.5215 52.0056L24.5231 53.8893C25.1844 53.5373 25.8318 53.1523 26.4462 52.7427L25.2644 50.9678C24.7076 51.3368 24.1209 51.6856 23.5215 52.0056Z" fill="#120536"/>
<path d="M29.6406 46.8633L31.3579 48.1284C31.8155 47.5076 32.2262 46.8601 32.5803 46.202L30.7019 45.1919C30.3958 45.7594 30.0385 46.3225 29.6406 46.8633Z" fill="#120536"/>
<path d="M29.9834 32.2926L31.6143 30.9177C31.3636 30.6201 31.0948 30.3363 30.8068 30.0665C30.5188 29.7966 30.1978 29.5363 29.8511 29.291L28.6191 31.0329C28.889 31.2248 29.129 31.4168 29.3487 31.6238C29.5749 31.8371 29.7861 32.06 29.9834 32.2926Z" fill="#120536"/>
<path d="M26.9166 30.0463L27.867 28.1359C27.4808 27.9439 27.0894 27.7605 26.6969 27.5781L25.9267 27.2144L25.002 29.1375L25.7934 29.5109C26.1699 29.6858 26.5465 29.8618 26.9166 30.0463Z" fill="#120536"/>
<path d="M32.1328 37.5716C32.1936 38.074 32.2235 38.5913 32.2235 39.1129C32.2235 39.2558 32.2213 39.3966 32.2171 39.5364L34.3493 39.6089C34.3546 39.4414 34.3578 39.274 34.3568 39.1086C34.3568 38.506 34.3205 37.9012 34.2501 37.3135L32.1328 37.5716Z" fill="#120536"/>
<path d="M31.5821 18.1255L31.5362 15.9922C30.8952 15.9922 30.1474 16.021 29.373 16.0765L29.5245 18.2034C30.2488 18.1532 30.9453 18.1255 31.5821 18.1255Z" fill="#120536"/>
<path d="M31.9211 41.9308C31.8123 42.4236 31.6716 42.9164 31.502 43.3943L33.5126 44.1068C33.712 43.5468 33.8774 42.9687 34.0043 42.3895C34.0406 42.2231 34.0747 42.0546 34.1056 41.886L32.0075 41.501C31.9809 41.645 31.9521 41.789 31.9211 41.9308Z" fill="#120536"/>
<path d="M31.7418 35.6568L33.7887 35.0552C33.5637 34.2883 33.2714 33.5598 32.9226 32.8867L31.0293 33.8702C31.3152 34.4206 31.5552 35.0221 31.7418 35.6568Z" fill="#120536"/>
<path d="M21.1816 26.4859C21.6798 27.0395 22.2942 27.5601 23.0067 28.0337L24.1885 26.2588C23.6243 25.8822 23.1453 25.479 22.7656 25.0566L21.1816 26.4859Z" fill="#120536"/>
<path d="M19.7754 53.5565L20.3983 55.596C21.1087 55.3795 21.8159 55.1256 22.5017 54.8408L21.6836 52.8696C21.0618 53.1288 20.4196 53.3592 19.7754 53.5565Z" fill="#120536"/>
<path d="M15.8125 54.3438L16.0034 56.4686C16.7309 56.4025 17.4786 56.2947 18.2274 56.1454L17.8103 54.0537C17.1362 54.1881 16.4642 54.2862 15.8125 54.3438Z" fill="#120536"/>
</svg>
