<svg width="64" height="64" viewBox="0 0 64 64" fill="none" xmlns="http://www.w3.org/2000/svg">
<path d="M58.375 0H24.5C21.3874 0 18.875 2.51238 18.875 5.625V54.625C18.875 57.7374 21.3874 60.25 24.5 60.25H58.375C61.4876 60.25 64 57.7374 64 54.625V5.625C64 2.51238 61.4876 0 58.375 0Z" fill="#E5E5E5"/>
<path d="M64 5.625V54.625C64 57.7374 61.4876 60.25 58.375 60.25H41.375V0H58.375C61.4876 0 64 2.51238 64 5.625Z" fill="#B8C7D5"/>
<path d="M43.25 48.9999C43.0523 48.9999 42.8526 48.9688 42.6567 48.9029C41.8914 48.6484 41.375 47.9324 41.375 47.1249V16.8749C41.375 16.0674 41.8914 15.3514 42.6567 15.0969C43.4276 14.8406 44.2663 15.1043 44.7496 15.7506L56.1246 31.0006C56.6245 31.6671 56.6245 32.5826 56.1246 33.2491L44.7496 48.2491C44.3889 48.7308 43.8286 48.9999 43.25 48.9999Z" fill="#E61E14"/>
<path d="M54.625 15C53.5886 15 52.75 14.1614 52.75 13.125V9.375C52.75 8.33862 53.5886 7.5 54.625 7.5C55.6614 7.5 56.5 8.33862 56.5 9.375V13.125C56.5 14.1614 55.6614 15 54.625 15Z" fill="#E61E14"/>
<path d="M54.625 52.75C53.5886 52.75 52.75 51.9114 52.75 50.875V47.125C52.75 46.0886 53.5886 45.25 54.625 45.25C55.6614 45.25 56.5 46.0886 56.5 47.125V50.875C56.5 51.9114 55.6614 52.75 54.625 52.75Z" fill="#E61E14"/>
<path d="M39.5 7.5H5.625C2.51238 7.5 0 10.0124 0 13.125V58.375C0 61.4874 2.51238 64 5.625 64H39.5C42.6126 64 45.125 61.4874 45.125 58.375V13.125C45.125 10.0124 42.6126 7.5 39.5 7.5Z" fill="#D9E3ED"/>
<path d="M45.125 13.125V58.375C45.125 61.4874 42.6126 64 39.5 64H22.625V7.5H39.5C42.6126 7.5 45.125 10.0124 45.125 13.125Z" fill="#D9D9D9"/>
<path d="M34.4746 45.3624C29.2247 43.6 25.4747 39.1375 24.6496 33.6999C24.4997 32.6874 23.6374 32.0499 22.6247 32.125C21.6497 32.0124 20.7497 32.6874 20.5999 33.6999C19.7747 39.1374 16.0247 43.5999 10.7749 45.3624C9.91223 45.6249 9.38711 46.5249 9.53724 47.4249C9.68724 48.325 10.4372 49 11.3747 49H33.8747C34.8122 49 35.5622 48.325 35.7122 47.4249C35.8624 46.5249 35.3372 45.6249 34.4746 45.3624Z" fill="#4B5868"/>
<path d="M35.7125 47.425C35.5625 48.3251 34.8125 49.0001 33.875 49.0001H22.625V32.1251C23.6376 32.05 24.5 32.6875 24.6499 33.7C25.475 39.1375 29.225 43.6 34.4749 45.3625C35.3375 45.625 35.8626 46.525 35.7125 47.425Z" fill="#3C4751"/>
<path d="M27.2004 18.3C26.1505 17.4374 25.0255 16.4625 23.863 15.45C23.5255 15.1499 23.0755 15 22.6255 15C22.1755 15 21.7255 15.1499 21.3879 15.45C20.2254 16.4626 19.1004 17.4374 18.0505 18.3C12.088 23.3624 7.77539 27.25 7.77539 32.575C7.77539 37.5999 11.4505 41.5 16.138 41.5C19.2879 41.5 21.3504 39.8125 22.6254 38.0874C23.9006 39.8125 25.963 41.5 29.1129 41.5C33.8004 41.5 37.4755 37.5999 37.4755 32.575C37.4756 27.25 33.163 23.3624 27.2004 18.3Z" fill="#5C697C"/>
<path d="M13.25 18.75H9.5C8.46362 18.75 7.625 17.9114 7.625 16.875C7.625 15.8386 8.46362 15 9.5 15H13.25C14.2864 15 15.125 15.8386 15.125 16.875C15.125 17.9114 14.2864 18.75 13.25 18.75Z" fill="#5C697C"/>
<path d="M35.75 56.5H32C30.9636 56.5 30.125 55.6614 30.125 54.625C30.125 53.5886 30.9636 52.75 32 52.75H35.75C36.7864 52.75 37.625 53.5886 37.625 54.625C37.625 55.6614 36.7864 56.5 35.75 56.5Z" fill="#4B5868"/>
<path d="M37.475 32.575C37.475 37.5999 33.7999 41.5 29.1124 41.5C25.9625 41.5 23.9 39.8125 22.625 38.0874V15C23.075 15 23.525 15.1499 23.8626 15.45C25.0251 16.4626 26.1501 17.4374 27.2 18.3C33.1624 23.3624 37.475 27.25 37.475 32.575Z" fill="#4B5868"/>
</svg>
