<svg width="64" height="64" viewBox="0 0 64 64" fill="none" xmlns="http://www.w3.org/2000/svg">
<path d="M31.999 24.8447C28.0536 24.8447 24.8438 28.0546 24.8438 32C24.8438 35.9454 28.0536 39.1552 31.999 39.1552C35.9444 39.1552 39.1543 35.9454 39.1543 32C39.1543 28.0546 35.9444 24.8447 31.999 24.8447Z" fill="#FFBD59"/>
<path d="M32 24.8447V39.1551C35.9454 39.1551 39.1553 35.9452 39.1553 31.9999C39.1553 28.0545 35.9454 24.8447 32 24.8447Z" fill="#FF8036"/>
<path d="M62.125 30.125H60.3913C59.9859 23.852 57.5504 17.9725 53.4015 13.2501L53.796 12.8556C54.5283 12.1234 54.5283 10.9363 53.796 10.204C53.0639 9.47175 51.8766 9.47175 51.1444 10.204L50.7499 10.5985C46.0275 6.4495 40.148 4.01412 33.875 3.60875V1.875C33.875 0.8395 33.0355 0 32 0C30.9645 0 30.125 0.8395 30.125 1.875V3.60875C23.852 4.01412 17.9725 6.44963 13.2501 10.5985L12.8556 10.204C12.1235 9.47175 10.9363 9.47175 10.204 10.204C9.47175 10.9363 9.47175 12.1234 10.204 12.8556L10.5985 13.2501C6.4495 17.9725 4.01412 23.852 3.60875 30.125H1.875C0.8395 30.125 0 30.9645 0 32C0 33.0355 0.8395 33.875 1.875 33.875H3.60875C4.01412 40.148 6.44963 46.0275 10.5985 50.7499L10.204 51.1444C9.47175 51.8766 9.47175 53.0638 10.204 53.796C10.5701 54.1621 11.05 54.3452 11.5297 54.3452C12.0095 54.3452 12.4895 54.1623 12.8555 53.796L13.25 53.4015C17.9725 57.5505 23.852 59.9859 30.125 60.3913V62.125C30.125 63.1605 30.9645 64 32 64C33.0355 64 33.875 63.1605 33.875 62.125V60.3913C40.148 59.9859 46.0275 57.5504 50.7499 53.4015L51.1444 53.796C51.5105 54.1621 51.9904 54.3452 52.4701 54.3452C52.9499 54.3452 53.4299 54.1623 53.7959 53.796C54.5281 53.0638 54.5281 51.8766 53.7959 51.1444L53.4014 50.7499C57.5505 46.0275 59.9859 40.148 60.3913 33.875H62.125C63.1605 33.875 64 33.0355 64 32C64 30.9645 63.1605 30.125 62.125 30.125ZM48.0835 13.2649L47.8158 13.5326C47.0835 14.2649 47.0835 15.452 47.8158 16.1842C48.1819 16.5504 48.6617 16.7335 49.1415 16.7335C49.6213 16.7335 50.1012 16.5505 50.4673 16.1842L50.735 15.9165C54.071 19.797 56.2254 24.7209 56.6329 30.125H51.0892C50.204 21.0422 42.9577 13.796 33.875 12.9108V7.367C39.2791 7.7745 44.2031 9.92887 48.0835 13.2649ZM46.3266 33.875H47.3169C46.4635 40.8879 40.8879 46.4636 33.875 47.3169V46.3266C33.875 45.2911 33.0355 44.4516 32 44.4516C30.9645 44.4516 30.125 45.2911 30.125 46.3266V47.3169C23.1121 46.4636 17.5365 40.8879 16.6831 33.875H17.6734C18.7089 33.875 19.5484 33.0355 19.5484 32C19.5484 30.9645 18.7089 30.125 17.6734 30.125H16.6831C17.5365 23.1121 23.1122 17.5364 30.125 16.6831V17.6734C30.125 18.7089 30.9645 19.5484 32 19.5484C33.0355 19.5484 33.875 18.7089 33.875 17.6734V16.6831C40.8879 17.5365 46.4635 23.1122 47.3169 30.125H46.3266C45.2911 30.125 44.4516 30.9645 44.4516 32C44.4516 33.0355 45.2911 33.875 46.3266 33.875ZM13.2649 15.9165L13.5326 16.1842C13.8988 16.5504 14.3786 16.7335 14.8584 16.7335C15.3381 16.7335 15.8181 16.5505 16.1841 16.1842C16.9164 15.452 16.9164 14.2649 16.1841 13.5326L15.9164 13.2649C19.7969 9.92887 24.7209 7.7745 30.125 7.367V12.9106C21.0422 13.796 13.796 21.0422 12.9108 30.125H7.367C7.7745 24.7209 9.92887 19.7969 13.2649 15.9165ZM15.9165 50.7351L16.1842 50.4674C16.9165 49.7351 16.9165 48.548 16.1842 47.8158C15.4521 47.0835 14.2649 47.0835 13.5326 47.8158L13.2649 48.0835C9.92887 44.2031 7.7745 39.2791 7.367 33.875H12.9106C13.7959 42.9577 21.0422 50.204 30.1249 51.0892V56.6329C24.7209 56.2255 19.7969 54.0711 15.9165 50.7351ZM50.7351 48.0835L50.4674 47.8158C49.7353 47.0835 48.548 47.0835 47.8158 47.8158C47.0835 48.548 47.0835 49.7351 47.8158 50.4674L48.0835 50.7351C44.203 54.0711 39.2791 56.2255 33.875 56.633V51.0894C42.9577 50.2041 50.204 42.9578 51.0892 33.8751H56.6329C56.2255 39.2791 54.0711 44.2031 50.7351 48.0835Z" fill="#5F6270"/>
<path d="M62.125 30.125H60.3913C59.9859 23.852 57.5504 17.9725 53.4015 13.2501L53.796 12.8556C54.5283 12.1234 54.5283 10.9363 53.796 10.204C53.0639 9.47175 51.8766 9.47175 51.1444 10.204L50.7499 10.5985C46.0275 6.4495 40.148 4.01412 33.875 3.60875V1.875C33.875 0.8395 33.0355 0 32 0V19.5484C33.0355 19.5484 33.875 18.7089 33.875 17.6734V16.6831C40.8879 17.5365 46.4635 23.1122 47.3169 30.125H46.3266C45.2911 30.125 44.4516 30.9645 44.4516 32C44.4516 33.0355 45.2911 33.875 46.3266 33.875H47.3169C46.4635 40.8879 40.8879 46.4636 33.875 47.3169V46.3266C33.875 45.2911 33.0355 44.4516 32 44.4516V64C33.0355 64 33.875 63.1605 33.875 62.125V60.3913C40.148 59.9859 46.0275 57.5504 50.7499 53.4015L51.1444 53.796C51.5105 54.1621 51.9904 54.3452 52.4701 54.3452C52.9499 54.3452 53.4299 54.1623 53.7959 53.796C54.5281 53.0638 54.5281 51.8766 53.7959 51.1444L53.4014 50.7499C57.5505 46.0275 59.9859 40.148 60.3913 33.875H62.125C63.1605 33.875 64 33.0355 64 32C64 30.9645 63.1605 30.125 62.125 30.125ZM50.7351 48.0835L50.4674 47.8158C49.7353 47.0835 48.548 47.0835 47.8158 47.8158C47.0835 48.548 47.0835 49.7351 47.8158 50.4674L48.0835 50.7351C44.203 54.0711 39.2791 56.2255 33.875 56.633V51.0894C42.9578 50.2041 50.204 42.9578 51.0892 33.8751H56.6329C56.2255 39.2791 54.0711 44.2031 50.7351 48.0835ZM51.0892 30.125C50.204 21.0422 42.9578 13.796 33.875 12.9108V7.367C39.2791 7.7745 44.2031 9.92887 48.0835 13.2649L47.8158 13.5326C47.0835 14.2649 47.0835 15.452 47.8158 16.1842C48.1819 16.5504 48.6617 16.7335 49.1415 16.7335C49.6212 16.7335 50.1013 16.5505 50.4673 16.1842L50.735 15.9165C54.071 19.797 56.2254 24.7209 56.6329 30.125H51.0892Z" fill="#343642"/>
</svg>
