<svg width="64" height="64" viewBox="0 0 64 64" fill="none" xmlns="http://www.w3.org/2000/svg">
<path d="M21.8946 28.0703H10.6665L9.74805 38.1756H22.813L21.8946 28.0703Z" fill="#F9EAB0"/>
<path d="M8.42188 52.7718H24.1412L23.4271 44.9121H9.13598L8.42188 52.7718Z" fill="#F9EAB0"/>
<path d="M9.54419 40.4209L9.33984 42.6665H23.2222L23.0179 40.4209H9.54419Z" fill="#FBD490"/>
<path d="M9.13477 44.9121H23.4259L23.2215 42.6665H9.33912L9.13477 44.9121Z" fill="#D6C990"/>
<path d="M22.8123 38.1753H9.74732L9.54297 40.4209H23.0167L22.8123 38.1753Z" fill="#D6C990"/>
<path d="M53.3326 22.4561H39.8589C38.6238 22.4561 37.6133 21.4455 37.6133 20.2105C37.6133 18.9754 38.6238 17.9648 39.8589 17.9648H53.3326C54.5677 17.9648 55.5782 18.9754 55.5782 20.2105C55.5782 21.4455 54.5677 22.4561 53.3326 22.4561Z" fill="#465D6F"/>
<path d="M21.4762 3.36842H19.6482V1.54049C19.6482 0.689403 18.9588 0 18.1077 0H14.453C13.6008 0 12.9114 0.689403 12.9114 1.54049V3.36842H11.0835C10.2324 3.36842 9.54297 4.05782 9.54297 4.90891V7.44084C9.54297 8.29305 10.2324 8.98246 11.0835 8.98246H12.9114V12.3509H19.6482V8.98246H21.4762C22.3272 8.98246 23.0167 8.29305 23.0167 7.44196V4.90891C23.0167 4.05782 22.3272 3.36842 21.4762 3.36842Z" fill="#FBD490"/>
<path d="M23.0183 22.4563H9.54466L7.75154 14.3867C7.51911 13.3414 8.31406 12.3511 9.3841 12.3511H23.1789C24.2489 12.3511 25.0439 13.3414 24.8115 14.3867L23.0183 22.4563Z" fill="#F9EAB0"/>
<path d="M54.4556 52.7721H38.7363L40.9819 28.0703H52.21L54.4556 52.7721Z" fill="#465D6F"/>
<path d="M53.3343 59.5088H39.8606C38.0001 59.5088 36.4922 58.0009 36.4922 56.1404C36.4922 54.2799 38.0001 52.772 39.8606 52.772H53.3343C55.1948 52.772 56.7027 54.2799 56.7027 56.1404C56.7027 58.0009 55.1948 59.5088 53.3343 59.5088Z" fill="#657F92"/>
<path d="M57.8248 64H35.3687C34.128 64 33.123 62.9951 33.123 61.7544C33.123 60.5137 34.128 59.5088 35.3687 59.5088H57.8248C59.0655 59.5088 60.0704 60.5137 60.0704 61.7544C60.0704 62.9951 59.0655 64 57.8248 64Z" fill="#465D6F"/>
<path d="M53.8957 28.0701H39.2992C37.7486 28.0701 36.4922 26.8137 36.4922 25.2631C36.4922 23.7125 37.7486 22.4561 39.2992 22.4561H53.8957C55.4463 22.4561 56.7027 23.7125 56.7027 25.2631C56.7027 26.8137 55.4463 28.0701 53.8957 28.0701Z" fill="#657F92"/>
<path d="M23.5793 28.0701H8.9828C7.4322 28.0701 6.17578 26.8137 6.17578 25.2631C6.17578 23.7125 7.4322 22.4561 8.9828 22.4561H23.5793C25.1299 22.4561 26.3863 23.7125 26.3863 25.2631C26.3863 26.8137 25.1299 28.0701 23.5793 28.0701Z" fill="#FBD490"/>
<path d="M23.0179 59.5088H9.5442C7.68371 59.5088 6.17578 58.0009 6.17578 56.1404C6.17578 54.2799 7.68371 52.772 9.5442 52.772H23.0179C24.8784 52.772 26.3863 54.2799 26.3863 56.1404C26.3863 58.0009 24.8784 59.5088 23.0179 59.5088Z" fill="#FBD490"/>
<path d="M27.5084 64H5.05225C3.81155 64 2.80664 62.9951 2.80664 61.7544C2.80664 60.5137 3.81155 59.5088 5.05225 59.5088H27.5084C28.7491 59.5088 29.754 60.5137 29.754 61.7544C29.754 62.9951 28.7491 64 27.5084 64Z" fill="#F9EAB0"/>
<path d="M56.7018 5.61426L53.5074 10.9375C53.3996 11.1183 53.2042 11.2283 52.9942 11.2283H49.5719C49.1947 11.2283 48.9106 10.8825 48.9847 10.5119L49.9649 5.61426H43.2281L44.2072 10.5119C44.2813 10.8825 43.9983 11.2283 43.6211 11.2283H40.1987C39.9888 11.2283 39.7934 11.1183 39.6856 10.9375L36.4912 5.61426H32L37.614 17.9651H55.5789L61.193 5.61426H56.7018Z" fill="#657F92"/>
</svg>
