<svg width="64" height="64" viewBox="0 0 64 64" fill="none" xmlns="http://www.w3.org/2000/svg">
<path d="M20.8828 13.3247H41.3086V40.5806H20.8828V13.3247Z" fill="#ACA299"/>
<path d="M31.4715 0.000100369C29.8751 0.021775 29.209 2.27594 25.551 7.2557C22.7124 11.1246 21.0789 12.5443 20.9045 13.1783C20.8146 13.5143 20.8622 13.6985 20.8622 13.6985H41.3197C41.3197 13.6985 41.3725 13.2704 41.1769 12.9561C41.0448 12.7502 38.6607 9.61282 37.1753 7.51038C33.2318 1.93998 32.9569 -0.0161556 31.4715 0.000100369Z" fill="#A62714"/>
<path d="M27.9712 18.8085V24.7853C27.9712 25.3326 27.765 25.7553 28.5632 25.6957C29.039 25.6577 34.304 25.6957 34.304 25.6957C34.304 25.6957 34.304 19.5671 34.2723 18.8681C34.2406 18.1691 33.4741 16.045 31.1059 16.0775C28.7377 16.11 27.9976 17.8657 27.9712 18.8085Z" fill="#2F2F2F"/>
<path d="M20.877 25.4409L41.308 25.4626V27.7439L38.5328 28.9414L35.8686 31.1251L32.496 28.8493C32.496 28.8493 30.1013 28.8493 29.9798 28.9414C29.8635 29.0335 27.3155 31.3093 27.3155 31.3093L24.4769 28.9143L20.8823 28.0581C20.8823 28.0527 20.8611 25.4626 20.877 25.4409Z" fill="#D9D1C6"/>
<path d="M20.877 29.5319C20.877 29.5319 23.1289 29.2338 24.3605 29.7595C25.7825 30.3663 27.1992 32.5501 27.4107 32.5501C27.86 32.5446 28.7851 29.7324 31.5233 29.5156C34.2457 29.2989 35.3399 32.821 35.9319 32.8535C36.3813 32.8752 37.4226 30.3284 38.6543 29.6402C39.9336 28.925 41.308 28.9087 41.308 28.9087V27.7329C41.308 27.7329 39.6217 27.5649 38.242 28.2151C36.6879 28.9521 36.1381 30.4314 35.8791 30.4476C35.6941 30.4585 34.3355 28.058 31.407 28.1555C28.6529 28.2476 27.6327 30.2959 27.4054 30.3013C27.3049 30.3067 26.2054 28.9575 24.8363 28.3994C23.2082 27.7329 20.8822 28.0417 20.8822 28.0417L20.877 29.5319Z" fill="#6F6B67"/>
<path d="M17.0554 41.3228L3.40123 42.4878C3.40123 42.4878 3.28494 62.2551 3.23208 62.8349C3.17922 63.4147 3.40123 63.9999 4.08315 63.9999C4.76506 63.9999 58.1765 63.7669 58.7474 63.7669C59.3183 63.7669 59.7147 62.9487 59.7147 62.2497V43.707L50.7864 41.3769L17.0554 41.3228Z" fill="#ACA299"/>
<path d="M13.207 42.5531H49.338L47.8261 36.8418C47.8261 36.8418 40.5524 36.7876 40.177 36.7876C39.8652 36.7876 39.6643 37.0531 39.6696 37.4487C39.6749 37.7359 39.6643 39.6432 39.6643 39.6432L34.8169 39.6324V37.5571C34.8169 37.0585 34.5208 36.8039 33.9817 36.8201C33.5641 36.8309 29.2875 36.8039 28.9598 36.8201C28.4788 36.8418 28.4259 37.1344 28.4259 37.595C28.4259 38.0556 28.41 39.5457 28.41 39.5457L23.1767 39.5403C23.1767 39.5403 23.1609 37.7738 23.1609 37.5245C23.1609 37.2807 23.0393 36.9718 22.4472 36.9447C21.8499 36.9122 14.9039 36.9447 14.9039 36.9447L13.207 42.5531Z" fill="#E5DDD2"/>
<path d="M54.9948 26.6274L46.4629 29.7757C46.4629 29.7757 46.5422 31.4284 46.8488 34.1973C47.0497 36.0234 47.499 38.2126 47.499 38.2126L55.6132 40.3583L61.8721 36.8741C61.8721 36.8741 62.295 34.8963 62.4958 32.5175C62.6333 30.9082 62.739 29.6131 62.6438 29.5318C61.6553 28.7082 54.9948 26.6274 54.9948 26.6274Z" fill="#ACA299"/>
<path d="M0.0078125 30.3882C0.0078125 30.3882 0.198114 32.5502 0.361986 34.0349C0.525857 35.5196 0.83774 37.2428 0.83774 37.2428L8.73527 39.1122L15.2743 37.1507C15.2743 37.1507 15.5333 35.265 15.6284 33.4172C15.7183 31.6615 15.6813 30.4152 15.6337 30.3773C15.491 30.2581 8.10622 26.8877 8.10622 26.8877L0.0078125 30.3882Z" fill="#ACA299"/>
<path d="M0.832031 37.2317L15.2791 37.145C15.2791 37.145 14.9514 39.4425 14.7611 40.4287C14.5708 41.4095 14.132 42.5583 14.132 42.5583L14.1267 63.962L12.6096 63.9674V44.4494H3.38525C3.38525 44.4494 2.02142 43.2464 1.48223 40.8351C1.01705 38.776 0.832031 37.2317 0.832031 37.2317Z" fill="#89847E"/>
<path d="M47.2188 36.7876L61.8667 36.8797C61.8667 36.8797 61.539 38.6354 60.9258 40.6945C60.524 42.0491 59.7311 44.4333 59.7311 44.4333H50.0521L49.8777 63.8051L48.5932 63.8105L48.6883 43.3171C48.6883 43.3171 48.2073 41.2092 47.8214 39.7191C47.5095 38.4891 47.2188 36.7876 47.2188 36.7876Z" fill="#89847E"/>
<path d="M49.6562 28.4808V30.9408C49.6562 32.3497 49.6668 33.3142 49.6933 34.0891C49.7091 34.7014 50.0474 35.0536 50.576 35.0319C51.1734 35.0048 51.2474 34.4901 51.2474 34.127C51.2474 33.764 51.1787 28.4482 51.1787 28.4482L49.6562 28.4808Z" fill="#2E2E2F"/>
<path d="M54.0686 28.4538C54.0686 28.4538 54.0792 33.737 54.0686 34.1325C54.0581 34.6744 54.3541 35.1079 54.8351 35.1079C55.3162 35.1079 55.6016 34.6365 55.5699 34.203C55.5382 33.7695 55.6333 28.2695 55.6333 28.2695L54.0686 28.4538Z" fill="#2E2E2F"/>
<path d="M58.705 28.73C58.705 28.73 58.668 33.9427 58.668 34.2299C58.668 34.5171 58.7367 35.1457 59.408 35.0969C60.0054 35.0536 60.0794 34.4087 60.0794 33.9753C60.0794 33.5418 60.1111 28.7679 60.1111 28.7679L58.705 28.73Z" fill="#2E2E2F"/>
<path d="M53.9577 17.3507C53.9577 17.3507 53.9102 10.0897 53.9102 9.79706C53.9102 9.50987 54.259 9.13598 54.7242 9.25519C55.8978 9.55863 57.2246 10.3769 59.08 10.6857C60.9355 10.9946 63.2085 10.6153 63.5627 10.6153C63.9169 10.6153 64.3028 11.1192 63.6314 11.4823C62.9601 11.8453 61.8553 13.0591 59.4871 13.7473C57.4149 14.3487 56.5744 14.4463 55.7392 14.8689C55.3903 15.0477 55.5647 17.2044 55.5647 17.2044L53.9577 17.3507Z" fill="#FE2A22"/>
<path d="M46.463 29.7755C46.463 29.7755 49.0902 29.0277 54.7358 29.1036C60.3814 29.1795 62.6386 29.5371 62.6386 29.5371C62.6386 29.5371 62.4642 28.9248 61.9356 28.4154C61.4069 27.9061 58.4784 24.7633 56.9243 20.5638C56.0732 18.2717 56.1261 16.3264 54.5931 16.3643C53.2504 16.4022 53.1817 17.7027 52.2302 20.4879C51.2787 23.2731 50.7078 24.0155 49.6875 25.5002C48.662 26.9849 47.6682 27.8085 47.129 28.4479C46.4418 29.277 46.463 29.7755 46.463 29.7755Z" fill="#A62714"/>
<path d="M2.39648 29.4344C2.39648 29.4344 2.50749 34.2245 2.52864 34.6146C2.54978 34.956 2.70837 35.487 3.31099 35.4653C3.91361 35.4437 3.96119 34.7772 3.96119 34.5929C3.96119 34.4087 3.82904 29.1797 3.82904 29.1797L2.39648 29.4344Z" fill="#2E2E2F"/>
<path d="M7.3457 29.467C7.3457 29.467 7.37742 34.2354 7.39328 34.5334C7.41442 34.9669 7.57829 35.4709 8.17034 35.4709C8.7624 35.4709 8.92627 34.8965 8.90512 34.5334C8.88926 34.2571 8.88398 29.4453 8.88398 29.4453L7.3457 29.467Z" fill="#2E2E2F"/>
<path d="M12.0977 29.5049C12.0977 29.5049 12.1241 34.2191 12.1241 34.5388C12.1241 34.9723 12.3038 35.46 12.8271 35.46C13.3716 35.46 13.5408 35.1186 13.5619 34.5876C13.5831 34.0566 13.5831 29.5916 13.5831 29.5916L12.0977 29.5049Z" fill="#2E2E2F"/>
<path d="M6.94958 18.1093C6.94958 18.1093 6.92315 10.6099 6.92843 10.3335C6.94429 9.18474 8.45614 10.0517 8.56186 10.0788C9.69838 10.3768 11.1362 10.8374 12.4313 11.065C13.7264 11.2926 16.6603 11.5473 16.9299 11.569C17.1995 11.5906 17.4215 11.9808 16.9721 12.2084C16.5228 12.4359 13.034 13.9532 11.6913 14.5005C10.3486 15.0477 8.44556 15.3945 8.44556 15.3945L8.42442 18.3748L6.94958 18.1093Z" fill="#FF2A23"/>
<path d="M7.70452 17.1285C6.20325 17.1447 5.31518 21.6531 3.90906 24.3136C2.50294 26.9742 1.02281 28.7353 0.599919 29.1362C-0.140145 29.8407 0.0131542 30.3879 0.0131542 30.3879C0.0131542 30.3879 3.38044 29.9599 7.91597 29.9274C12.4515 29.8948 15.6655 30.4367 15.6655 30.4367C15.6655 30.4367 15.5809 29.7052 15.0153 29.0604C14.6294 28.6215 12.9695 26.8062 11.6374 24.1673C10.1679 21.2521 9.24808 17.1122 7.70452 17.1285Z" fill="#A62714"/>
<path d="M22.8338 63.924C22.8338 63.924 22.633 55.4655 23.7801 52.5665C25.0012 49.4833 26.7244 47.8197 27.8768 46.5355C29.0345 45.2459 30.9851 43.4848 31.6141 43.4198C32.2538 43.3493 34.2942 45.3488 35.8801 47.0449C37.3866 48.6542 39.2844 50.3665 40.0773 53.2438C40.6693 55.3896 40.4843 63.8482 40.4843 63.8482L22.8338 63.924Z" fill="#6F6A67"/>
<path d="M31.6184 45.4521C31.3171 45.4521 26.1948 49.7762 25.2485 53.6777C24.4926 56.8097 24.6406 63.919 24.6406 63.919L38.8974 63.8539C38.8974 63.8539 39.2939 55.6501 38.2842 53.1358C36.7037 49.1964 31.9197 45.4521 31.6184 45.4521Z" fill="#89847E"/>
<path d="M26.8089 63.9135C26.8089 63.9135 26.7243 55.7693 26.7613 54.691C26.7983 53.6072 28.2679 50.3669 31.7356 50.4427C35.2033 50.5186 36.7099 53.4934 36.7469 54.691C36.7839 55.8885 36.7469 63.8648 36.7469 63.8648L26.8089 63.9135Z" fill="#6E4D42"/>
<path d="M28.1518 63.9077L29.32 63.9023V51.0059C29.32 51.0059 28.8443 51.2876 28.6064 51.4935C28.3791 51.6886 28.1465 51.927 28.1465 51.927L28.1518 63.9077Z" fill="#8F6D61"/>
<path d="M31.3393 63.8917L31.334 50.448C31.334 50.448 31.6934 50.4317 31.8573 50.4371C32.0793 50.448 32.3701 50.4913 32.3701 50.4913L32.4547 63.8863L31.3393 63.8917Z" fill="#8F6D61"/>
<path d="M34.6326 51.3584C34.6326 51.3584 34.9656 51.5914 35.2141 51.8244C35.4308 52.0303 35.6528 52.3012 35.6528 52.3012L35.6581 63.8701L34.5586 63.8755L34.6326 51.3584Z" fill="#8F6D61"/>
<path d="M42.0547 54.7339V52.7723C42.0547 52.7723 45.4801 52.7507 45.5224 52.8049C45.5647 52.859 45.5541 54.7447 45.5541 54.7447L42.0547 54.7339Z" fill="#D8D0C5"/>
<path d="M51.5053 56.8419C51.4154 56.972 51.3837 58.8197 51.4947 58.8522C51.6057 58.8847 54.7615 58.8522 54.7615 58.8522V56.7606C54.7615 56.7552 51.6163 56.6848 51.5053 56.8419Z" fill="#D8D0C5"/>
<path d="M23.5312 47.8902V49.8517C23.5312 49.8517 20.1004 49.9384 20.0159 49.8301C19.9313 49.7217 19.9419 47.9606 20.0053 47.9173C20.0687 47.8739 23.5312 47.8902 23.5312 47.8902Z" fill="#D8D0C5"/>
<path d="M17.8849 51.4991C17.8849 51.4991 21.2733 51.4774 21.3367 51.5207C21.4002 51.5641 21.3896 53.4769 21.3896 53.4769C21.3896 53.4769 17.98 53.5311 17.9166 53.4661C17.8532 53.401 17.8849 51.4991 17.8849 51.4991Z" fill="#D8D0C5"/>
<path d="M7.64072 46.6384C7.64072 46.6384 7.56143 48.4699 7.67243 48.5458C7.77816 48.6271 11.1983 48.6379 11.2723 48.5783C11.3463 48.5187 11.3357 46.6872 11.2723 46.6384C11.2142 46.5951 7.64072 46.6384 7.64072 46.6384Z" fill="#D8D0C5"/>
</svg>
